<?xml version="1.0" encoding="iso-8859-1"?>
<!-- Generator: Adobe Illustrator 18.1.1, SVG Export Plug-In . SVG Version: 6.00 Build 0)  -->
<svg version="1.1" id="Capa_1" xmlns="http://www.w3.org/2000/svg" xmlns:xlink="http://www.w3.org/1999/xlink" x="0px" y="0px"
	 viewBox="0 0 26 26" style="enable-background:new 0 0 26 26;" xml:space="preserve">
<g>
	<polyline style="fill:none;stroke:#030104;stroke-linecap:round;stroke-linejoin:round;stroke-miterlimit:10;" points="0.5,8.487 
		0.5,25.487 25.5,25.487 25.5,8.487 	"/>
	<polyline style="fill:none;stroke:#030104;stroke-linecap:round;stroke-linejoin:round;stroke-miterlimit:10;" points="7.5,8.487 
		0.5,8.487 0.5,25.487 25.5,25.487 25.5,8.487 18.5,8.487 	"/>
	<rect y="7.987" style="fill:#030104;" width="3" height="18"/>
	<rect x="23" y="7.987" style="fill:#030104;" width="3" height="18"/>
	<polygon style="fill:#030104;" points="26,8.987 22,8.987 13,16.602 4,8.987 0,8.987 13,19.987 	"/>
	<path style="fill:#030104;" d="M13.355,10.862c-0.105,0.081-0.229,0.122-0.354,0.122c-0.126,0-0.252-0.041-0.355-0.122
		c-0.1-0.081-2.979-2.684-4.504-4.954c-0.119-0.176-0.13-0.401-0.031-0.587s0.293-0.303,0.505-0.303h2.49
		c0.209-1.247,0.272-4.296,0.417-4.5C11.736,0.217,12.425,0.013,13,0.013c0.573,0,1.182,0.204,1.394,0.505
		c0.145,0.204,0.289,3.253,0.498,4.5h2.494c0.211,0,0.404,0.117,0.504,0.303s0.088,0.411-0.029,0.587
		C16.334,8.178,13.457,10.781,13.355,10.862z"/>
</g>
<g>
</g>
<g>
</g>
<g>
</g>
<g>
</g>
<g>
</g>
<g>
</g>
<g>
</g>
<g>
</g>
<g>
</g>
<g>
</g>
<g>
</g>
<g>
</g>
<g>
</g>
<g>
</g>
<g>
</g>
</svg>
